<?xml version="1.0" standalone="no"?>
<!DOCTYPE svg PUBLIC "-//W3C//DTD SVG 20010904//EN"
 "http://www.w3.org/TR/2001/REC-SVG-20010904/DTD/svg10.dtd">
<svg version="1.0" xmlns="http://www.w3.org/2000/svg"
 width="256.000000pt" height="256.000000pt" viewBox="0 0 256.000000 256.000000"
 preserveAspectRatio="xMidYMid meet">
<metadata>
Created by potrace 1.11, written by Peter Selinger 2001-2013
</metadata>
<g transform="translate(0.000000,256.000000) scale(0.100000,-0.100000)"
fill="#000000" stroke="none">
<path d="M1140 2554 c-84 -11 -201 -39 -280 -66 -429 -152 -739 -506 -836
-958 -26 -119 -26 -381 0 -500 73 -338 268 -626 551 -817 126 -85 293 -154
455 -189 119 -26 381 -26 500 0 513 111 895 493 1006 1006 26 119 26 381 0
500 -55 253 -175 476 -353 652 -109 109 -195 172 -321 236 -106 54 -215 93
-332 118 -73 15 -320 27 -390 18z m325 -259 c209 -37 377 -127 540 -290 221
-221 315 -460 302 -770 -12 -280 -115 -506 -319 -700 -213 -203 -457 -294
-753 -282 -280 12 -506 115 -700 319 -189 199 -285 437 -285 708 0 271 96 509
284 707 160 169 358 275 576 312 88 14 260 12 355 -4z"/>
<path d="M621 1881 c-36 -36 -26 -60 69 -175 50 -59 90 -112 90 -116 0 -4 -40
-57 -90 -116 -56 -67 -90 -117 -90 -131 0 -33 36 -66 66 -60 42 8 452 259 463
284 7 16 7 30 0 46 -11 25 -421 276 -463 284 -16 3 -31 -2 -45 -16z"/>
<path d="M1662 1768 c-229 -137 -251 -156 -231 -201 11 -25 421 -276 463 -284
30 -6 66 27 66 60 0 14 -34 64 -90 131 -49 59 -90 112 -90 116 0 4 41 57 90
116 56 67 90 117 90 131 0 28 -33 63 -59 63 -10 0 -117 -59 -239 -132z"/>
<path d="M634 1085 c-31 -48 10 -195 88 -311 84 -125 227 -225 370 -259 84
-20 293 -19 377 0 82 20 202 82 268 140 129 113 236 358 189 430 l-16 25 -630
0 -630 0 -16 -25z"/>
</g>
</svg>
